<?xml version="1.0" encoding="UTF-8" standalone="no"?>
<!DOCTYPE svg PUBLIC "-//W3C//DTD SVG 1.1//EN" "http://www.w3.org/Graphics/SVG/1.1/DTD/svg11.dtd">
<svg width="100%" height="100%" viewBox="0 0 29 5" version="1.1" xmlns="http://www.w3.org/2000/svg" xmlns:xlink="http://www.w3.org/1999/xlink" xml:space="preserve" xmlns:serif="http://www.serif.com/" style="fill-rule:evenodd;clip-rule:evenodd;stroke-linejoin:round;stroke-miterlimit:1.41421;">
    <g transform="matrix(1,0,0,1,-1,-26.1562)">
        <g id="Favourite--small-" serif:id="Favourite (small)" transform="matrix(0.15625,5.77779e-33,0,0.15625,-19.4687,-5.40625)">
            <path d="M153.7,221L163,214L150.9,214L147,202L143.1,214L131,214L140.3,221L137,233L147,225.2L157,233L153.7,221Z" style="fill:white;fill-rule:nonzero;"/>
        </g>
        <g id="Favourite--small-1" serif:id="Favourite (small)" transform="matrix(0.15625,5.77779e-33,0,0.15625,-13.4687,-5.40625)">
            <path d="M153.7,221L163,214L150.9,214L147,202L143.1,214L131,214L140.3,221L137,233L147,225.2L157,233L153.7,221Z" style="fill:white;fill-rule:nonzero;"/>
        </g>
        <g id="Favourite--small-2" serif:id="Favourite (small)" transform="matrix(0.15625,5.77779e-33,0,0.15625,-7.46875,-5.40625)">
            <path d="M153.7,221L163,214L150.9,214L147,202L143.1,214L131,214L140.3,221L137,233L147,225.2L157,233L153.7,221Z" style="fill:white;fill-rule:nonzero;"/>
        </g>
        <g id="Favourite--small-3" serif:id="Favourite (small)" transform="matrix(0.15625,5.77779e-33,0,0.15625,-1.46875,-5.40625)">
            <path d="M153.7,221L163,214L150.9,214L147,202L143.1,214L131,214L140.3,221L137,233L147,225.2L157,233L153.7,221Z" style="fill:white;fill-rule:nonzero;"/>
        </g>
        <g id="Favourite--small-4" serif:id="Favourite (small)" transform="matrix(0.15625,5.77779e-33,0,0.15625,4.53125,-5.40625)">
            <path d="M153.7,221L163,214L150.9,214L147,202L143.1,214L131,214L140.3,221L137,233L147,225.2L157,233L153.7,221Z" style="fill:white;fill-rule:nonzero;"/>
        </g>
    </g>
</svg>
